<?xml version="1.0" encoding="UTF-8" standalone="no"?>
<!-- Created with Inkscape (http://www.inkscape.org/) -->

<svg
   width="40mm"
   height="40mm"
   viewBox="0 0 40 40"
   version="1.1"
   id="svg1"
   xml:space="preserve"
   sodipodi:docname="logo.svg"
   inkscape:version="1.3.2 (091e20e, 2023-11-25, custom)"
   xmlns:inkscape="http://www.inkscape.org/namespaces/inkscape"
   xmlns:sodipodi="http://sodipodi.sourceforge.net/DTD/sodipodi-0.dtd"
   xmlns="http://www.w3.org/2000/svg"
   xmlns:svg="http://www.w3.org/2000/svg"><sodipodi:namedview
     id="namedview1"
     pagecolor="#505050"
     bordercolor="#eeeeee"
     borderopacity="1"
     inkscape:showpageshadow="0"
     inkscape:pageopacity="0"
     inkscape:pagecheckerboard="0"
     inkscape:deskcolor="#505050"
     inkscape:document-units="mm"
     showguides="true"
     inkscape:zoom="2.8284271"
     inkscape:cx="62.04862"
     inkscape:cy="45.431611"
     inkscape:window-width="1920"
     inkscape:window-height="1009"
     inkscape:window-x="1912"
     inkscape:window-y="-8"
     inkscape:window-maximized="1"
     inkscape:current-layer="layer1"><sodipodi:guide
       position="32.182591,21.294445"
       orientation="0,-1"
       id="guide2"
       inkscape:locked="false" /></sodipodi:namedview><defs
     id="defs1"><inkscape:path-effect
       effect="fillet_chamfer"
       id="path-effect18"
       is_visible="true"
       lpeversion="1"
       nodesatellites_param="F,0,0,1,0,0.396875,0,1 @ F,0,0,1,0,0.396875,0,1 @ F,0,0,1,0,0.396875,0,1 @ F,0,0,1,0,0.396875,0,1 @ F,0,0,1,0,0.396875,0,1 @ F,0,0,1,0,0.396875,0,1 @ F,0,0,1,0,0.396875,0,1 @ F,0,0,1,0,0.396875,0,1 @ F,0,0,1,0,0.396875,0,1 @ F,0,0,1,0,0.396875,0,1 | F,0,0,1,0,0.396875,0,1 @ F,0,0,1,0,0.396875,0,1 @ F,0,0,1,0,0.396875,0,1 @ F,0,0,1,0,0.396875,0,1 @ F,0,0,1,0,0.396875,0,1 @ F,0,0,1,0,0.396875,0,1"
       radius="1.8"
       unit="px"
       method="auto"
       mode="F"
       chamfer_steps="1"
       flexible="false"
       use_knot_distance="true"
       apply_no_radius="true"
       apply_with_radius="true"
       only_selected="false"
       hide_knots="false" /><inkscape:path-effect
       effect="fillet_chamfer"
       id="path-effect17"
       is_visible="true"
       lpeversion="1"
       nodesatellites_param="F,0,0,1,0,0.52916667,0,1 @ F,0,0,1,0,0.52916667,0,1 @ F,0,0,1,0,0.52916667,0,1 @ F,0,0,1,0,0.52916667,0,1 @ F,0,0,1,0,0.52916667,0,1 @ F,0,0,1,0,0.52916667,0,1"
       radius="2"
       unit="px"
       method="auto"
       mode="F"
       chamfer_steps="1"
       flexible="false"
       use_knot_distance="true"
       apply_no_radius="true"
       apply_with_radius="true"
       only_selected="false"
       hide_knots="false" /><inkscape:path-effect
       effect="fillet_chamfer"
       id="path-effect15"
       is_visible="true"
       lpeversion="1"
       nodesatellites_param="F,0,0,1,0,0.52916667,0,1 @ F,0,0,1,0,0.52916667,0,1 @ F,0,0,1,0,0.52916667,0,1 @ F,0,0,1,0,0.52916667,0,1 @ F,0,0,1,0,0.52916667,0,1 @ F,0,0,1,0,0.52916667,0,1"
       radius="2"
       unit="px"
       method="auto"
       mode="F"
       chamfer_steps="1"
       flexible="false"
       use_knot_distance="true"
       apply_no_radius="true"
       apply_with_radius="true"
       only_selected="false"
       hide_knots="false" /><inkscape:path-effect
       effect="fillet_chamfer"
       id="path-effect14"
       is_visible="true"
       lpeversion="1"
       nodesatellites_param="F,0,0,1,0,0.10583333,0,1 @ F,0,0,1,0,0.10583333,0,1 @ F,0,0,1,0,0.10583333,0,1 @ F,0,0,1,0,0.10583333,0,1 | F,0,0,1,0,0.10583333,0,1 @ F,0,0,1,0,0.10583333,0,1 @ F,0,0,1,0,0.10583333,0,1 @ F,0,0,1,0,0.10583333,0,1 | F,0,0,1,0,0.10583333,0,1 @ F,0,0,1,0,0.10583333,0,1 @ F,0,0,1,0,0.10583333,0,1 @ F,0,0,1,0,0.10583333,0,1 | F,0,0,1,0,0.10583333,0,1 @ F,0,0,1,0,0.10583333,0,1 @ F,0,0,1,0,0.10583333,0,1 @ F,0,0,1,0,0.10583333,0,1 | F,0,0,1,0,0.10583333,0,1 @ F,0,0,1,0,0.10583333,0,1 @ F,0,0,1,0,0.10583333,0,1 @ F,0,0,1,0,0.10583333,0,1 | F,0,0,1,0,0.10583333,0,1 @ F,0,0,1,0,0.10583333,0,1 @ F,0,0,1,0,0.10583333,0,1 @ F,0,0,1,0,0.10583333,0,1 | F,0,0,1,0,0.10583333,0,1 @ F,0,0,1,0,0.10583333,0,1 @ F,0,0,1,0,0.10583333,0,1 @ F,0,0,1,0,0.10583333,0,1"
       radius="0.4"
       unit="px"
       method="auto"
       mode="F"
       chamfer_steps="1"
       flexible="false"
       use_knot_distance="true"
       apply_no_radius="true"
       apply_with_radius="true"
       only_selected="false"
       hide_knots="false" /></defs><g
     inkscape:label="Layer 1"
     inkscape:groupmode="layer"
     id="layer1"
     transform="translate(-78.991564,-152.19122)"><path
       style="color:#000000;fill:#4772b3;-inkscape-stroke:none;fill-opacity:1"
       d="m 98.960937,147.90234 c -0.255537,0 -0.468749,0.21517 -0.46875,0.47071 v 7.63672 c 10e-7,0.25553 0.213213,0.4707 0.46875,0.4707 h 0.06055 c 0.255537,0 0.470703,-0.21517 0.470703,-0.4707 v -7.63672 c 0,-0.25554 -0.215166,-0.47071 -0.470703,-0.47071 z m -9.471679,6.35645 -0.05078,0.0293 c -0.221341,0.12773 -0.299638,0.42125 -0.171875,0.64258 l 1.909179,3.30761 c 0.127841,0.22146 0.421317,0.30005 0.642578,0.17188 l 0.05078,-0.0293 c 0.220971,-0.12801 0.299554,-0.42142 0.171875,-0.64258 l -1.90918,-3.30761 c -0.127753,-0.22129 -0.421268,-0.29959 -0.642577,-0.17188 z m 19.003902,0 c -0.22131,-0.12771 -0.51482,-0.0494 -0.64257,0.17188 l -1.90918,3.30761 c -0.12768,0.22116 -0.0491,0.51457 0.17187,0.64258 l 0.0527,0.0293 c 0.22126,0.12817 0.51473,0.0496 0.64257,-0.17188 l 1.90918,-3.30761 c 0.12777,-0.22133 0.0495,-0.51485 -0.17187,-0.64258 z m -28.653316,4.88183 c -0.22132,-0.12778 -0.51484,-0.0475 -0.642578,0.17383 l -0.03125,0.0508 c -0.127714,0.22131 -0.04745,0.51482 0.173828,0.64258 l 6.613281,3.81836 c 0.221319,0.12779 0.51484,0.0495 0.642578,-0.17187 l 0.0293,-0.0508 c 0.127714,-0.22131 0.0494,-0.51482 -0.171875,-0.64258 z m 38.304686,0 -6.61523,3.82032 c -0.22128,0.12776 -0.29959,0.42127 -0.17188,0.64258 l 0.0293,0.0508 c 0.12774,0.22135 0.42126,0.29966 0.64258,0.17187 l 6.61523,-3.81836 c 0.22128,-0.12776 0.29959,-0.42127 0.17188,-0.64258 l -0.0293,-0.0508 c -0.12774,-0.22135 -0.42126,-0.30161 -0.64258,-0.17383 z m -37.73828,11.13672 c -0.255537,0 -0.470704,0.21517 -0.470704,0.47071 v 0.0586 c 0,0.25554 0.215167,0.4707 0.470704,0.4707 h 3.818359 c 0.255537,0 0.470703,-0.21516 0.470703,-0.4707 v -0.0586 c 10e-7,-0.25554 -0.215166,-0.47071 -0.470703,-0.47071 z m 33.35156,0 c -0.25553,0 -0.4707,0.21517 -0.4707,0.47071 v 0.0586 c 0,0.25554 0.21517,0.4707 0.4707,0.4707 h 3.81934 c 0.25554,0 0.47071,-0.21516 0.47071,-0.4707 v -0.0586 c 0,-0.25554 -0.21517,-0.47071 -0.47071,-0.47071 z"
       id="path18"
       transform="matrix(0.83635167,0,0,0.83635167,16.199745,30.04239)"
       sodipodi:nodetypes="sccssssssccccccccccccccscccccccccccccccccccccssssssssssssssssss" /><path
       id="path17"
       style="font-size:4.9389px;font-family:Kiona;-inkscape-font-specification:Kiona;letter-spacing:1.05833px;fill:#f9f9f9;fill-opacity:1;stroke-width:0.15;stroke:#f9f9f9;stroke-opacity:1"
       d="m 88.678241,187.31932 v 3.24993 h 0.22221 v -2.54352 l 1.442289,2.03451 1.422136,-2.02986 v 2.53887 h 0.222207 v -3.24993 l -1.644344,2.35076 z m 19.742979,0 c -0.29304,0 -0.56334,0.074 -0.81029,0.22221 -0.24694,0.14487 -0.44268,0.34248 -0.58756,0.59272 -0.14487,0.24694 -0.21704,0.51673 -0.21704,0.80977 0,0.29633 0.0722,0.56988 0.21704,0.82011 0.14488,0.24695 0.34062,0.44269 0.58756,0.58756 0.24695,0.14488 0.51725,0.21756 0.81029,0.21756 h 1.16065 V 188.974 h -1.28932 v 0.22221 h 1.05729 v 1.15083 h -0.92862 c -0.25024,0 -0.48258,-0.063 -0.6966,-0.1881 -0.21402,-0.12841 -0.38339,-0.29965 -0.50849,-0.51367 -0.12512,-0.21402 -0.18759,-0.44772 -0.18759,-0.70125 0,-0.25353 0.0625,-0.48536 0.18759,-0.69608 0.1251,-0.21402 0.29447,-0.38389 0.50849,-0.50901 0.21402,-0.12512 0.44636,-0.18759 0.6966,-0.18759 0.19097,0 0.37514,0.0398 0.55294,0.11886 0.1778,0.0757 0.33286,0.18397 0.46457,0.32556 l 0.16278,-0.15296 c -0.15146,-0.16463 -0.33104,-0.29279 -0.53847,-0.38499 -0.20414,-0.0922 -0.41792,-0.13849 -0.64182,-0.13849 z m -23.147422,0.005 c -0.293041,0 -0.564699,0.074 -0.814937,0.22221 -0.250237,0.14487 -0.447855,0.34385 -0.592729,0.59738 -0.144875,0.25023 -0.217041,0.52378 -0.217041,0.82011 0,0.29634 0.07217,0.57122 0.217041,0.82475 0.144874,0.25024 0.342492,0.44921 0.592729,0.59738 0.250238,0.14487 0.521896,0.21756 0.814937,0.21756 0.293041,0 0.564702,-0.0727 0.814937,-0.21756 0.250237,-0.14817 0.447856,-0.34714 0.59273,-0.59738 0.144874,-0.25353 0.217557,-0.52841 0.217557,-0.82475 0,-0.29633 -0.07268,-0.56988 -0.217557,-0.82011 -0.144874,-0.25353 -0.342493,-0.45251 -0.59273,-0.59738 -0.250235,-0.14817 -0.521896,-0.22221 -0.814937,-0.22221 z m -5.755204,0.0341 v 3.21066 h 0.923974 c 0.227189,0 0.43774,-0.0412 0.632003,-0.12351 0.194263,-0.0856 0.362265,-0.2073 0.503845,-0.36535 0.134997,-0.15146 0.238656,-0.32269 0.311093,-0.51366 0.07244,-0.19097 0.10852,-0.3937 0.10852,-0.60772 0,-0.21401 -0.03608,-0.41674 -0.10852,-0.60771 -0.07244,-0.19097 -0.176096,-0.36033 -0.311093,-0.5085 -0.14158,-0.15475 -0.309582,-0.27322 -0.503845,-0.35553 -0.194263,-0.0856 -0.404814,-0.12868 -0.632003,-0.12868 z m 14.480253,0 v 3.21066 h 2.07946 v -0.23203 h -1.857251 v -1.25987 h 1.44694 v -0.22686 h -1.44694 v -1.26452 h 1.857251 v -0.22738 z m 6.729823,0 v 3.21066 h 2.02468 v -0.22221 h -1.80248 v -2.98845 z m 3.98683,0 v 3.21066 h 0.22221 v -3.21066 z m 6.87762,0 v 1.4919 1.71876 h 0.22738 v -1.4919 h 1.89652 v 1.4919 h 0.22221 v -1.61024 -1.60042 h -0.22221 v 1.4919 h -1.89652 v -1.4919 z m 4.10104,0 v 0.22738 h 1.27382 v 2.98328 h 0.22738 v -2.98328 h 1.26917 v -0.22738 z m -30.420362,0.19275 c 0.25353,0 0.487233,0.0643 0.70125,0.19276 0.214018,0.12512 0.383893,0.29634 0.509012,0.51366 0.125118,0.21401 0.187586,0.4496 0.187586,0.70642 0,0.25682 -0.06247,0.49376 -0.187586,0.71107 -0.125119,0.21402 -0.294994,0.38525 -0.509012,0.51366 -0.214017,0.12512 -0.44772,0.18758 -0.70125,0.18758 -0.25353,0 -0.48723,-0.0625 -0.701249,-0.18758 -0.214019,-0.12841 -0.385253,-0.29964 -0.513664,-0.51366 -0.125119,-0.21731 -0.187585,-0.45425 -0.187585,-0.71107 0,-0.25682 0.06247,-0.49241 0.187585,-0.70642 0.128411,-0.21732 0.299645,-0.38854 0.513664,-0.51366 0.214018,-0.12841 0.447719,-0.19276 0.701249,-0.19276 z m -5.532995,0.0346 h 0.701765 c 0.395112,0 0.719021,0.1365 0.972551,0.40979 0.11524,0.12511 0.202734,0.27185 0.261999,0.43977 0.06256,0.16463 0.09354,0.33858 0.09354,0.52296 0,0.18768 -0.03099,0.36589 -0.09354,0.53382 -0.05927,0.16462 -0.146759,0.30897 -0.261999,0.43408 -0.250238,0.27987 -0.574147,0.42013 -0.972551,0.42013 h -0.701765 z m 18.542537,1.09657 a 0.28110266,0.28110266 0 0 0 -0.28112,0.28112 0.28110266,0.28110266 0 0 0 0.28112,0.28112 0.28110266,0.28110266 0 0 0 0.28112,-0.28112 0.28110266,0.28110266 0 0 0 -0.28112,-0.28112 z" /><path
       id="path1"
       style="color:#000000;fill:#4772b3;-inkscape-stroke:none"
       d="m 98.595598,158.22073 c -6.683529,0.20592 -12.075066,5.59556 -12.281061,12.27901 -0.0068,0.21907 -0.0068,0.57454 2.93e-4,0.79361 0.01627,0.50513 0.06325,1.00251 0.137147,1.49118 0.03277,0.21671 0.236178,0.34299 0.447576,0.28508 0.06722,-0.0184 0.134492,-0.0367 0.20183,-0.0548 0.211659,-0.057 0.352603,-0.27633 0.322069,-0.49337 -0.05673,-0.40321 -0.09366,-0.81273 -0.10815,-1.2281 -0.0076,-0.21904 -0.0076,-0.57454 -3.38e-4,-0.79359 0.204473,-6.14213 5.138428,-11.0737 11.280654,-11.27807 0.219051,-0.007 0.574537,-0.007 0.793594,0 6.142128,0.20438 11.073698,5.13595 11.278068,11.27808 0.007,0.21905 0.007,0.57454 -3.5e-4,0.79358 -0.0145,0.41521 -0.0515,0.82454 -0.10816,1.22758 -0.0305,0.21704 0.11042,0.4364 0.32213,0.4932 0.0673,0.0181 0.13455,0.0363 0.20174,0.0546 0.21144,0.0578 0.41482,-0.0685 0.44759,-0.28525 0.0738,-0.48833 0.12086,-0.98536 0.13716,-1.49014 0.007,-0.21906 0.007,-0.57454 3.2e-4,-0.79361 -0.20591,-6.68345 -5.59506,-12.07308 -12.278499,-12.27901 -0.219069,-0.007 -0.574538,-0.007 -0.793613,1e-5 z m -11.282275,15.77152 c -0.06584,0.0178 -0.13162,0.0356 -0.197341,0.0537 -0.211367,0.058 -0.337281,0.27868 -0.27439,0.48864 1.529829,5.10733 6.193894,8.86791 11.754007,9.0393 0.219075,0.007 0.574548,0.007 0.793623,0 5.560038,-0.17139 10.222608,-3.93197 11.751978,-9.03929 0.0629,-0.20997 -0.0631,-0.43061 -0.27443,-0.48864 -0.0657,-0.018 -0.1315,-0.036 -0.19734,-0.0537 -0.21163,-0.0571 -0.42831,0.0705 -0.49143,0.28035 -1.40991,4.68813 -5.6798,8.13076 -10.78879,8.30085 -0.219055,0.007 -0.574545,0.007 -0.793602,0 -5.109065,-0.17009 -9.380445,-3.61272 -10.790819,-8.30086 -0.06314,-0.20989 -0.279836,-0.33741 -0.491466,-0.28035 z"
       inkscape:path-effect="#path-effect18"
       inkscape:original-d="m 98.99241,158.21462 c -6.998467,0 -12.68398,5.68346 -12.68398,12.68192 0,0.7785 0.0741,1.53947 0.208773,2.27945 0.321273,-0.0907 0.643829,-0.17862 0.967899,-0.26252 -0.113916,-0.65556 -0.176733,-1.32853 -0.176733,-2.01693 0,-6.45803 5.226014,-11.68146 11.684041,-11.68146 6.45803,0 11.68146,5.22343 11.68146,11.68146 0,0.68824 -0.0629,1.361 -0.17674,2.01641 0.32408,0.0839 0.64662,0.17128 0.9679,0.262 0.13452,-0.73966 0.20878,-1.50027 0.20878,-2.27841 0,-6.99846 -5.68293,-12.68192 -12.6814,-12.68192 z m -11.295434,15.67605 c -0.32246,0.0838 -0.643628,0.17129 -0.963249,0.262 1.439763,5.42337 6.385874,9.42733 12.258683,9.42733 5.87281,0 10.81729,-4.00396 12.25662,-9.42733 -0.31974,-0.0907 -0.64067,-0.17818 -0.96325,-0.262 -1.32035,5.00459 -5.87076,8.68939 -11.29337,8.68939 -5.422612,0 -9.97465,-3.6848 -11.295434,-8.68939 z"
       transform="matrix(0.83635167,0,0,0.83635167,16.199745,30.04239)" /><path
       id="circle1"
       style="color:#000000;fill:#4772b3;-inkscape-stroke:none"
       d="m 98.463255,170.59311 c -5.362009,0.061 -10.500316,1.04863 -15.27175,2.79786 -0.274391,0.10059 -0.495774,0.42191 -0.495774,0.71416 v 0.0134 c 0,0.29225 0.220677,0.44294 0.49425,0.34014 4.760914,-1.78893 9.901111,-2.803 15.273275,-2.86558 0.292229,-0.003 0.76608,-0.003 1.058309,0 5.371735,0.0626 10.511295,1.07638 15.271725,2.86507 0.27357,0.10279 0.49425,-0.0479 0.49425,-0.34015 v -0.0134 c 0,-0.29225 -0.22138,-0.61357 -0.49578,-0.71415 -4.77095,-1.74898 -9.90862,-2.73631 -15.270195,-2.79735 -0.29223,-0.003 -0.76608,-0.003 -1.05831,0 z"
       sodipodi:nodetypes="sccsccs"
       inkscape:path-effect="#path-effect15"
       inkscape:original-d="m 98.99241,170.5901 c -5.739892,0 -11.230186,1.06216 -16.296679,2.98586 v 1.07177 c 5.05393,-1.96685 10.545889,-3.05769 16.296679,-3.05769 5.75038,0 11.24168,1.09057 16.29513,3.05717 v -1.07177 c -5.06602,-1.92345 -10.55565,-2.98534 -16.29513,-2.98534 z"
       transform="matrix(0.83635167,0,0,0.83635167,16.199745,30.04239)" /></g></svg>
